<?xml version="1.0" standalone="no"?>
<!DOCTYPE svg PUBLIC "-//W3C//DTD SVG 20010904//EN"
 "http://www.w3.org/TR/2001/REC-SVG-20010904/DTD/svg10.dtd">
<svg version="1.0" xmlns="http://www.w3.org/2000/svg"
 width="512.000000pt" height="512.000000pt" viewBox="0 0 512.000000 512.000000"
 preserveAspectRatio="xMidYMid meet">
<metadata>
Created by potrace 1.14, written by Peter Selinger 2001-2017
</metadata>
<g transform="translate(0.000000,512.000000) scale(0.100000,-0.100000)"
fill="#000000" stroke="none">
<path d="M2495 4034 c-286 -46 -513 -232 -606 -495 -201 -568 322 -1129 903
-968 124 34 222 93 319 189 109 108 169 211 210 360 17 62 17 272 0 340 -53
214 -202 401 -394 495 -51 25 -119 52 -152 60 -62 16 -227 27 -280 19z m224
-229 c137 -33 274 -139 338 -261 189 -360 -65 -784 -470 -784 -238 0 -456 176
-512 411 -55 237 64 488 283 596 107 52 239 66 361 38z"/>
<path d="M1078 3274 c-138 -33 -279 -143 -346 -270 -138 -263 -30 -594 235
-724 182 -90 379 -73 549 46 104 73 172 172 204 299 34 132 23 239 -37 365
-106 222 -364 343 -605 284z m236 -224 c72 -27 139 -88 173 -158 24 -48 28
-69 27 -137 0 -67 -5 -89 -27 -132 -123 -239 -450 -237 -567 2 -37 75 -35 189
3 267 71 145 241 214 391 158z"/>
<path d="M3852 3276 c-181 -46 -332 -193 -386 -376 -24 -79 -22 -218 3 -301
37 -118 133 -238 242 -302 296 -174 677 -23 778 307 26 83 28 206 5 291 -42
163 -176 308 -339 366 -76 27 -227 34 -303 15z m264 -239 c64 -33 137 -113
158 -174 9 -26 16 -77 16 -113 0 -118 -76 -232 -189 -283 -64 -29 -178 -29
-243 0 -264 119 -250 489 22 587 66 24 171 16 236 -17z"/>
<path d="M2440 2429 c-274 -34 -563 -171 -734 -347 l-38 -40 -62 23 c-113 42
-211 58 -361 58 -281 0 -507 -89 -703 -277 -177 -170 -276 -379 -296 -626 -8
-85 10 -135 54 -157 19 -10 180 -13 697 -13 l671 0 31 26 c51 43 51 115 0 163
-19 17 -35 21 -96 21 l-74 0 6 38 c17 98 47 204 77 278 144 339 467 584 836
634 398 54 800 -124 1023 -451 86 -127 156 -307 175 -450 l7 -49 -711 0 -711
0 -26 -23 c-53 -46 -49 -133 8 -167 31 -20 59 -20 1351 -20 l1318 0 34 34 c32
32 34 38 34 103 0 188 -81 406 -212 570 -67 85 -92 103 -142 103 -50 0 -104
-41 -107 -80 -3 -55 3 -70 61 -141 33 -40 75 -102 94 -138 32 -63 76 -187 76
-217 0 -12 -68 -14 -424 -14 l-423 0 -7 61 c-16 142 -85 345 -160 470 l-34 57
79 22 c155 41 342 34 479 -20 107 -42 179 -15 187 71 6 65 -21 101 -94 129
-246 92 -520 88 -760 -11 -31 -12 -32 -12 -100 48 -192 169 -380 266 -612 313
-117 24 -305 33 -411 19z m-995 -545 c33 -9 61 -17 63 -19 2 -1 -20 -46 -48
-98 -74 -139 -118 -276 -145 -459 l-6 -38 -419 0 c-231 0 -420 1 -420 3 0 1 9
36 21 77 75 273 316 490 606 545 95 18 261 13 348 -11z"/>
<path d="M1873 1270 c-13 -5 -32 -24 -43 -42 -28 -45 -21 -94 20 -130 89 -81
224 28 160 130 -29 47 -83 64 -137 42z"/>
</g>
</svg>
